# This file uses centimeters as units for non-parametric coordinates.

mtllib cuborojo.mtl
g default
v 5.256716 -6.556088 2.506504
v 11.256388 -6.556088 2.443711
v 5.256716 8.443912 2.506504
v 11.256388 8.443912 2.443711
v 5.193923 8.443912 -3.493168
v 11.193594 8.443912 -3.555961
v 5.193923 -6.556088 -3.493168
v 11.193594 -6.556088 -3.555961
vt 0.375000 0.000000
vt 0.625000 0.000000
vt 0.375000 0.250000
vt 0.625000 0.250000
vt 0.375000 0.500000
vt 0.625000 0.500000
vt 0.375000 0.750000
vt 0.625000 0.750000
vt 0.375000 1.000000
vt 0.625000 1.000000
vt 0.875000 0.000000
vt 0.875000 0.250000
vt 0.125000 0.000000
vt 0.125000 0.250000
vn 0.010466 0.000000 0.999945
vn 0.010466 0.000000 0.999945
vn 0.010466 0.000000 0.999945
vn 0.010466 0.000000 0.999945
vn 0.000000 1.000000 0.000000
vn 0.000000 1.000000 0.000000
vn 0.000000 1.000000 0.000000
vn 0.000000 1.000000 0.000000
vn -0.010466 0.000000 -0.999945
vn -0.010466 0.000000 -0.999945
vn -0.010466 0.000000 -0.999945
vn -0.010466 0.000000 -0.999945
vn 0.000000 -1.000000 0.000000
vn 0.000000 -1.000000 0.000000
vn 0.000000 -1.000000 0.000000
vn 0.000000 -1.000000 0.000000
vn 0.999945 0.000000 -0.010466
vn 0.999945 0.000000 -0.010466
vn 0.999945 0.000000 -0.010466
vn 0.999945 0.000000 -0.010466
vn -0.999945 0.000000 0.010466
vn -0.999945 0.000000 0.010466
vn -0.999945 0.000000 0.010466
vn -0.999945 0.000000 0.010466
s off
g pCube1
usemtl lambert21SG
f 1/1/1 2/2/2 4/4/3 3/3/4
f 3/3/5 4/4/6 6/6/7 5/5/8
f 5/5/9 6/6/10 8/8/11 7/7/12
f 7/7/13 8/8/14 2/10/15 1/9/16
f 2/2/17 8/11/18 6/12/19 4/4/20
f 7/13/21 1/1/22 3/3/23 5/14/24
