# This file uses centimeters as units for non-parametric coordinates.

mtllib mesacafe.mtl
g default
v 13.372800 -0.003000 -23.100000
v 13.372800 -0.003000 -20.900000
v 11.172800 -0.003000 -20.900000
v 11.172800 -0.003000 -23.100000
v 11.172800 27.492500 -23.100000
v 13.372800 27.492500 -23.100000
v 11.172800 27.492500 -20.900000
v 13.372800 27.492500 -20.900000
v -12.827200 -0.003000 -23.100000
v -10.627200 -0.003000 -23.100000
v -10.627200 -0.003000 -20.900000
v -12.827200 -0.003000 -20.900000
v -12.827200 27.492500 -20.900000
v -12.827200 27.492500 -23.100000
v -10.627200 27.492500 -20.900000
v -10.627200 27.492500 -23.100000
v 11.172800 -0.003000 23.100000
v 11.172800 -0.003000 20.900000
v 13.372800 -0.003000 20.900000
v 13.372800 -0.003000 23.100000
v 13.372800 27.492500 23.100000
v 11.172800 27.492500 23.100000
v 13.372800 27.492500 20.900000
v 11.172800 27.492500 20.900000
v -10.627200 -0.003000 23.100000
v -12.827200 -0.003000 23.100000
v -12.827200 -0.003000 20.900000
v -10.627200 -0.003000 20.900000
v -10.627200 27.492500 20.900000
v -10.627200 27.492500 23.100000
v -12.827200 27.492500 20.900000
v -12.827200 27.492500 23.100000
v -10.927200 23.527300 -21.000000
v -10.927200 27.527300 -21.000000
v -10.927300 27.527300 21.000000
v -10.927300 23.527300 21.000000
v -12.527200 23.527300 -21.000000
v -12.527300 23.527300 21.000000
v -12.527300 27.527300 21.000000
v -12.527200 27.527300 -21.000000
v -10.708000 23.527300 21.200001
v -10.708000 27.527300 21.200001
v 11.252300 27.527300 21.200001
v 11.252300 23.527300 21.200001
v -10.708000 23.527300 22.799999
v 11.252300 23.527300 22.799999
v 11.252300 27.527300 22.799999
v -10.708000 27.527300 22.799999
v 11.472700 23.527300 21.000000
v 11.472700 27.527300 21.000000
v 11.472800 27.527300 -21.000000
v 11.472800 23.527300 -21.000000
v 13.072700 23.527300 21.000000
v 13.072800 23.527300 -21.000000
v 13.072800 27.527300 -21.000000
v 13.072700 27.527300 21.000000
v 11.248500 23.527300 -21.200001
v 11.248500 27.527300 -21.200001
v -10.711800 27.527300 -21.200001
v -10.711800 23.527300 -21.200001
v 11.248500 23.527300 -22.799999
v -10.711800 23.527300 -22.799999
v -10.711800 27.527300 -22.799999
v 11.248500 27.527300 -22.799999
v 15.036500 28.393600 24.606300
v 15.036500 28.393600 -24.606300
v -14.491000 28.393600 -24.606300
v -14.491000 28.393600 24.606300
v -14.491000 27.409300 24.606300
v -14.491000 27.409300 -24.606300
v 15.036500 27.409300 24.606300
v 15.036500 27.409300 -24.606300
vt 1.050800 0.985700
vt 1.050800 0.905700
vt 1.130900 0.905700
vt 1.130900 0.985700
vt 1.000000 0.710900
vt 1.000000 0.808600
vt 0.000000 0.808600
vt 0.000000 0.710900
vt 1.000000 0.903600
vt 0.000000 0.902300
vt 1.000000 1.000000
vt 0.000000 1.000000
vt 1.000000 0.808200
vt 0.000000 0.808200
vt 0.226900 0.883600
vt 0.226900 0.807200
vt 0.996500 0.807200
vt 0.996500 0.883600
vt 0.225800 0.903100
vt 0.997500 0.903100
vt 0.997500 0.998500
vt 0.225800 0.998500
vt 0.226900 0.852500
vt 0.996500 0.852500
vt 0.996400 0.828600
vt 0.996400 0.905000
vt 0.434900 0.905000
vt 0.434900 0.828600
vt 0.997500 0.809100
vt 0.433900 0.809100
vt 0.433900 0.713700
vt 0.997500 0.713700
vt 0.996400 0.859700
vt 0.434900 0.859700
vt 0.140700 0.913400
vt 0.140700 0.989800
vt 0.702100 0.989800
vt 0.702100 0.913400
vt 0.139600 0.904100
vt 0.703100 0.904100
vt 0.703100 0.814500
vt 0.139600 0.814500
vt 0.140700 0.960400
vt 0.702100 0.960400
vt 0.975900 0.698600
vt 0.025500 0.698600
vt 0.025500 0.025000
vt 0.975900 0.025000
vt 1.003900 -0.000000
vt 0.000000 0.000000
vt 1.000200 0.698800
vt 1.000000 0.024800
vt 0.968900 0.656600
vt 0.968900 0.698900
vt 0.032200 0.698900
vt 0.032200 0.656600
vt 0.000000 0.025200
vt 0.000000 0.698100
vt 0.975700 0.024400
vt 0.025300 0.024400
vt 0.025300 0.698100
vt 0.975700 0.698100
vt 1.050800 0.985700
vt 1.050800 0.905700
vt 1.130900 0.905700
vt 1.130900 0.985700
vt 1.000000 0.710900
vt 1.000000 0.808600
vt 0.000000 0.808600
vt 0.000000 0.710900
vt 1.000000 0.808600
vt 1.000000 0.903600
vt 0.000000 0.902300
vt 0.000000 0.808600
vt 1.000000 0.903600
vt 1.000000 1.000000
vt 0.000000 1.000000
vt 0.000000 0.902300
vt 1.000000 0.808200
vt 1.000000 0.710900
vt 0.000000 0.710900
vt 0.000000 0.808200
vt 1.050800 0.985700
vt 1.050800 0.905700
vt 1.130900 0.905700
vt 1.130900 0.985700
vt 1.000000 0.710900
vt 1.000000 0.808600
vt 0.000000 0.808600
vt 0.000000 0.710900
vt 1.000000 0.808600
vt 1.000000 0.903600
vt 0.000000 0.902300
vt 0.000000 0.808600
vt 1.000000 0.903600
vt 1.000000 1.000000
vt 0.000000 1.000000
vt 0.000000 0.902300
vt 1.000000 0.808200
vt 1.000000 0.710900
vt 0.000000 0.710900
vt 0.000000 0.808200
vt 1.050800 0.985700
vt 1.050800 0.905700
vt 1.130900 0.905700
vt 1.130900 0.985700
vt 1.000000 0.710900
vt 1.000000 0.808600
vt 0.000000 0.808600
vt 0.000000 0.710900
vt 1.000000 0.808600
vt 1.000000 0.903600
vt 0.000000 0.902300
vt 0.000000 0.808600
vt 1.000000 0.903600
vt 1.000000 1.000000
vt 0.000000 1.000000
vt 0.000000 0.902300
vt 1.000000 0.808200
vt 1.000000 0.710900
vt 0.000000 0.710900
vt 0.000000 0.808200
vt 0.226900 0.883600
vt 0.226900 0.807200
vt 0.996500 0.807200
vt 0.996500 0.883600
vt 0.225800 0.903100
vt 0.997500 0.903100
vt 0.997500 0.998500
vt 0.225800 0.998500
vt 0.226900 0.852500
vt 0.996500 0.852500
vt 0.997500 0.903100
vt 0.225800 0.903100
vn 0.000000 -1.000000 0.000000
vn 0.000000 -1.000000 0.000000
vn 0.000000 -1.000000 0.000000
vn 0.000000 -1.000000 0.000000
vn 0.000000 0.000000 -1.000000
vn 0.000000 0.000000 -1.000000
vn 0.000000 0.000000 -1.000000
vn 0.000000 0.000000 -1.000000
vn -1.000000 0.000000 -0.000000
vn -1.000000 0.000000 -0.000000
vn -1.000000 0.000000 -0.000000
vn -1.000000 0.000000 -0.000000
vn 0.000000 0.000000 1.000000
vn 0.000000 0.000000 1.000000
vn 0.000000 0.000000 1.000000
vn 0.000000 0.000000 1.000000
vn 1.000000 0.000000 0.000000
vn 1.000000 0.000000 0.000000
vn 1.000000 0.000000 0.000000
vn 1.000000 0.000000 0.000000
vn 0.000000 -1.000000 0.000000
vn 0.000000 -1.000000 0.000000
vn 0.000000 -1.000000 0.000000
vn 0.000000 -1.000000 0.000000
vn -1.000000 0.000000 -0.000000
vn -1.000000 0.000000 -0.000000
vn -1.000000 0.000000 -0.000000
vn -1.000000 0.000000 -0.000000
vn 0.000000 0.000000 1.000000
vn 0.000000 0.000000 1.000000
vn 0.000000 0.000000 1.000000
vn 0.000000 0.000000 1.000000
vn 1.000000 0.000000 0.000000
vn 1.000000 0.000000 0.000000
vn 1.000000 0.000000 0.000000
vn 1.000000 0.000000 0.000000
vn 0.000000 0.000000 -1.000000
vn 0.000000 0.000000 -1.000000
vn 0.000000 0.000000 -1.000000
vn 0.000000 0.000000 -1.000000
vn 0.000000 -1.000000 0.000000
vn 0.000000 -1.000000 0.000000
vn 0.000000 -1.000000 0.000000
vn 0.000000 -1.000000 0.000000
vn 0.000000 -0.000000 1.000000
vn 0.000000 -0.000000 1.000000
vn 0.000000 -0.000000 1.000000
vn 0.000000 -0.000000 1.000000
vn 1.000000 0.000000 0.000000
vn 1.000000 0.000000 0.000000
vn 1.000000 0.000000 0.000000
vn 1.000000 0.000000 0.000000
vn 0.000000 0.000000 -1.000000
vn 0.000000 0.000000 -1.000000
vn 0.000000 0.000000 -1.000000
vn 0.000000 0.000000 -1.000000
vn -1.000000 0.000000 -0.000000
vn -1.000000 0.000000 -0.000000
vn -1.000000 0.000000 -0.000000
vn -1.000000 0.000000 -0.000000
vn 0.000000 -1.000000 0.000000
vn 0.000000 -1.000000 0.000000
vn 0.000000 -1.000000 0.000000
vn 0.000000 -1.000000 0.000000
vn 1.000000 0.000000 0.000000
vn 1.000000 0.000000 0.000000
vn 1.000000 0.000000 0.000000
vn 1.000000 0.000000 0.000000
vn 0.000000 0.000000 -1.000000
vn 0.000000 0.000000 -1.000000
vn 0.000000 0.000000 -1.000000
vn 0.000000 0.000000 -1.000000
vn -1.000000 0.000000 0.000000
vn -1.000000 0.000000 0.000000
vn -1.000000 0.000000 0.000000
vn -1.000000 0.000000 0.000000
vn 0.000000 0.000000 1.000000
vn 0.000000 0.000000 1.000000
vn 0.000000 0.000000 1.000000
vn 0.000000 0.000000 1.000000
vn 1.000000 0.000000 0.000000
vn 1.000000 0.000000 0.000000
vn 1.000000 0.000000 0.000000
vn 1.000000 0.000000 0.000000
vn -1.000000 0.000000 -0.000000
vn -1.000000 0.000000 -0.000000
vn -1.000000 0.000000 -0.000000
vn -1.000000 0.000000 -0.000000
vn 0.000000 -1.000000 0.000000
vn 0.000000 -1.000000 0.000000
vn 0.000000 -1.000000 0.000000
vn 0.000000 -1.000000 0.000000
vn 0.000000 0.000000 -1.000000
vn 0.000000 0.000000 -1.000000
vn 0.000000 0.000000 -1.000000
vn 0.000000 0.000000 -1.000000
vn 0.000000 0.000000 1.000000
vn 0.000000 0.000000 1.000000
vn 0.000000 0.000000 1.000000
vn 0.000000 0.000000 1.000000
vn 0.000000 -1.000000 0.000000
vn 0.000000 -1.000000 0.000000
vn 0.000000 -1.000000 0.000000
vn 0.000000 -1.000000 0.000000
vn -1.000000 0.000000 -0.000000
vn -1.000000 0.000000 -0.000000
vn -1.000000 0.000000 -0.000000
vn -1.000000 0.000000 -0.000000
vn 1.000000 0.000000 0.000000
vn 1.000000 0.000000 0.000000
vn 1.000000 0.000000 0.000000
vn 1.000000 0.000000 0.000000
vn 0.000000 -1.000000 0.000000
vn 0.000000 -1.000000 0.000000
vn 0.000000 -1.000000 0.000000
vn 0.000000 -1.000000 0.000000
vn 0.000000 0.000000 1.000000
vn 0.000000 0.000000 1.000000
vn 0.000000 0.000000 1.000000
vn 0.000000 0.000000 1.000000
vn 0.000000 0.000000 -1.000000
vn 0.000000 0.000000 -1.000000
vn 0.000000 0.000000 -1.000000
vn 0.000000 0.000000 -1.000000
vn 0.000000 -1.000000 0.000000
vn 0.000000 -1.000000 0.000000
vn 0.000000 -1.000000 0.000000
vn 0.000000 -1.000000 0.000000
vn 0.000000 1.000000 0.000000
vn 0.000000 1.000000 0.000000
vn 0.000000 1.000000 0.000000
vn 0.000000 1.000000 0.000000
vn -1.000000 0.000000 -0.000000
vn -1.000000 0.000000 -0.000000
vn -1.000000 0.000000 -0.000000
vn -1.000000 0.000000 -0.000000
vn 0.000000 0.000000 1.000000
vn 0.000000 0.000000 1.000000
vn 0.000000 0.000000 1.000000
vn 0.000000 0.000000 1.000000
vn 1.000000 0.000000 0.000000
vn 1.000000 0.000000 0.000000
vn 1.000000 0.000000 0.000000
vn 1.000000 0.000000 0.000000
vn 0.000000 0.000000 -1.000000
vn 0.000000 0.000000 -1.000000
vn 0.000000 0.000000 -1.000000
vn 0.000000 0.000000 -1.000000
vn 0.000000 -1.000000 0.000000
vn 0.000000 -1.000000 0.000000
vn 0.000000 -1.000000 0.000000
vn 0.000000 -1.000000 0.000000
s off
g deskWorn_OBJ:deskWorn
usemtl lambert5SG
f 1/1/1 2/2/2 3/3/3 4/4/4
f 1/5/5 4/6/6 5/7/7 6/8/8
f 4/6/9 3/9/10 7/10/11 5/7/12
f 3/9/13 2/11/14 8/12/15 7/10/16
f 2/13/17 1/5/18 6/8/19 8/14/20
f 9/63/21 10/64/22 11/65/23 12/66/24
f 9/67/25 12/68/26 13/69/27 14/70/28
f 12/71/29 11/72/30 15/73/31 13/74/32
f 11/75/33 10/76/34 16/77/35 15/78/36
f 10/79/37 9/80/38 14/81/39 16/82/40
f 17/83/41 18/84/42 19/85/43 20/86/44
f 17/87/45 20/88/46 21/89/47 22/90/48
f 20/91/49 19/92/50 23/93/51 21/94/52
f 19/95/53 18/96/54 24/97/55 23/98/56
f 18/99/57 17/100/58 22/101/59 24/102/60
f 25/103/61 26/104/62 27/105/63 28/106/64
f 25/107/65 28/108/66 29/109/67 30/110/68
f 28/111/69 27/112/70 31/113/71 29/114/72
f 27/115/73 26/116/74 32/117/75 31/118/76
f 26/119/77 25/120/78 30/121/79 32/122/80
f 33/15/81 34/16/82 35/17/83 36/18/84
f 37/19/85 38/20/86 39/21/87 40/22/88
f 33/23/89 36/24/90 38/20/91 37/19/92
f 41/25/93 42/26/94 43/27/95 44/28/96
f 45/29/97 46/30/98 47/31/99 48/32/100
f 41/33/101 44/34/102 46/30/103 45/29/104
f 49/123/105 50/124/106 51/125/107 52/126/108
f 53/127/109 54/128/110 55/129/111 56/130/112
f 49/131/113 52/132/114 54/133/115 53/134/116
f 57/35/117 58/36/118 59/37/119 60/38/120
f 61/39/121 62/40/122 63/41/123 64/42/124
f 57/43/125 60/44/126 62/40/127 61/39/128
f 65/45/129 66/46/130 67/47/131 68/48/132
f 69/49/133 68/48/134 67/47/135 70/50/136
f 71/51/137 65/45/138 68/48/139 69/52/140
f 72/53/141 66/54/142 65/55/143 71/56/144
f 70/57/145 67/47/146 66/46/147 72/58/148
f 69/59/149 70/60/150 72/61/151 71/62/152
